<svg version="1.1" id="Layer_1" xmlns="http://www.w3.org/2000/svg" x="0" y="0" viewBox="0 0 126.2 126.1" xml:space="preserve"><style type="text/css">.st0{fill:#fff}</style><path class="st0" d="M63.1 126.1C28.3 126.1 0 97.8 0 63.1S28.3 0 63.1 0s63.1 28.3 63.1 63.1-28.4 63-63.1 63zm0-123.6C29.7 2.5 2.5 29.7 2.5 63.1s27.2 60.6 60.6 60.6 60.6-27.2 60.6-60.6S96.4 2.5 63.1 2.5z"/><path class="st0" d="M63.1 64.3c-7.6 0-13.8-6.2-13.8-13.8s6.2-13.8 13.8-13.8 13.8 6.2 13.8 13.8-6.2 13.8-13.8 13.8zm0-25.1c-6.2 0-11.3 5.1-11.3 11.3s5.1 11.3 11.3 11.3 11.3-5.1 11.3-11.3-5.1-11.3-11.3-11.3z"/><path class="st0" d="M63.1 101.9l-4.6-7c-1.7-2.6-5.9-9.2-10.2-16.8-7.2-12.8-10.6-21.8-10.6-27.4 0-14 11.4-25.4 25.4-25.4s25.4 11.4 25.4 25.4c0 5.6-3.5 14.5-10.6 27.4-4.8 8.6-9.6 16-10.1 16.8l-4.7 7zm0-74.2c-12.7 0-22.9 10.3-22.9 22.9 0 5.1 3.4 13.7 10.3 26.2 4.2 7.5 8.4 14.1 10 16.5l2.6 4 2.6-3.9c.5-.8 5.3-8.1 10.1-16.6 7-12.5 10.3-21 10.3-26.2-.1-12.6-10.4-22.9-23-22.9zm0 36.6c-7.6 0-13.8-6.2-13.8-13.8s6.2-13.8 13.8-13.8 13.8 6.2 13.8 13.8-6.2 13.8-13.8 13.8zm0-25.1c-6.2 0-11.3 5.1-11.3 11.3s5.1 11.3 11.3 11.3 11.3-5.1 11.3-11.3-5.1-11.3-11.3-11.3z"/></svg>