<?xml version="1.0" encoding="utf-8"?>
<!-- Generator: Adobe Illustrator 21.0.0, SVG Export Plug-In . SVG Version: 6.00 Build 0)  -->
<svg version="1.1" id="svg2" xmlns="http://www.w3.org/2000/svg" xmlns:xlink="http://www.w3.org/1999/xlink" x="0px" y="0px"
	 viewBox="0 0 158 157.8" style="enable-background:new 0 0 158 157.8;" xml:space="preserve">
<style type="text/css">
	.st0{clip-path:url(#SVGID_2_);}
	.st1{fill:#EE9136;}
</style>
<g id="g10" transform="matrix(1.25 0 0 -1.25 0 250)">
	<g id="g12">
		<g>
			<g>
				<defs>
					<rect id="SVGID_1_" x="-58" y="-19.3" width="312.5" height="312.5"/>
				</defs>
				<clipPath id="SVGID_2_">
					<use xlink:href="#SVGID_1_"  style="overflow:visible;"/>
				</clipPath>
				<g id="g14" class="st0">
					<g id="g20" transform="translate(64.793 160.566)">
						<path id="path22" class="st1" d="M-1.7,37c-33.4,0-60.6-27.2-60.6-60.6s27.2-60.6,60.6-60.6S58.8-57,58.8-23.6S31.7,37-1.7,37
							 M-1.7-86.6c-34.8,0-63.1,28.3-63.1,63.1s28.3,63.1,63.1,63.1s63.1-28.3,63.1-63.1C61.3-58.3,33-86.6-1.7-86.6"/>
					</g>
					<g id="g24" transform="translate(64.793 123.83)">
						<path id="path26" class="st1" d="M-1.7,37C-8,37-13,31.9-13,25.7s5.1-11.3,11.3-11.3S9.6,19.5,9.6,25.7S4.5,37-1.7,37
							 M-1.7,11.9c-7.6,0-13.8,6.2-13.8,13.8s6.2,13.8,13.8,13.8S12,33.3,12,25.7S5.9,11.9-1.7,11.9"/>
					</g>
					<g id="g28" transform="translate(64.793 123.83)">
						<path id="path30" class="st1" d="M-1.7,37C-8,37-13,31.9-13,25.7s5.1-11.3,11.3-11.3S9.6,19.5,9.6,25.7S4.5,37-1.7,37
							 M-1.7,11.9c-7.6,0-13.8,6.2-13.8,13.8s6.2,13.8,13.8,13.8S12,33.3,12,25.7S5.9,11.9-1.7,11.9 M-1.7,48.5
							c-12.7,0-22.9-10.3-22.9-22.9c0-5.1,3.4-13.7,10.3-26.2c4.2-7.5,8.4-14.1,10-16.5l2.6-4l2.6,3.9C1.4-16.4,6.2-9.1,11-0.6
							c7,12.5,10.3,21,10.3,26.2C21.2,38.2,10.9,48.5-1.7,48.5 M-1.7-25.7l-4.6,7c-1.8,2.7-6,9.2-10.2,16.9
							C-23.7,11-27.2,20-27.2,25.5c0,14,11.4,25.4,25.4,25.4s25.4-11.4,25.4-25.4C23.7,20,20.2,11,13-1.8c-4.8-8.6-9.6-16-10.1-16.8
							C2.9-18.6-1.7-25.7-1.7-25.7z"/>
					</g>
				</g>
			</g>
		</g>
	</g>
</g>
</svg>
