<?xml version="1.0" encoding="utf-8"?>
<!-- Generator: Adobe Illustrator 21.0.0, SVG Export Plug-In . SVG Version: 6.00 Build 0)  -->
<svg version="1.1" id="Layer_1" xmlns="http://www.w3.org/2000/svg" xmlns:xlink="http://www.w3.org/1999/xlink" x="0px" y="0px"
	 viewBox="0 0 144 144" style="enable-background:new 0 0 144 144;" xml:space="preserve">
<style type="text/css">
	.st0{fill:#99999A;}
	.st1{fill:#D1D3D4;}
	.st2{fill:none;stroke:#5F6162;stroke-miterlimit:10;}
</style>
<rect x="0" transform="matrix(-1 -4.491886e-11 4.491886e-11 -1 144 144)" class="st0" width="144" height="144"/>
<g>
	<path class="st1" d="M88.5,34.4c0.2-0.2,0.5-0.2,0.7,0l3.5,3.5c0.2,0.2,0.2,0.5,0,0.7L59.8,71.6c-0.2,0.2-0.2,0.5,0,0.7l32.9,32.9
		c0.2,0.2,0.2,0.5,0,0.7l-3.5,3.5c-0.2,0.2-0.5,0.2-0.7,0L51.3,72.4c-0.2-0.2-0.2-0.5,0-0.7L88.5,34.4z"/>
</g>
<path class="st2" d="M72,72"/>
</svg>
