<svg version="1.1" id="Layer_1" xmlns="http://www.w3.org/2000/svg" x="0" y="0" viewBox="0 0 180.3 180.4" xml:space="preserve"><style type="text/css">.st0{fill:#fff}</style><path class="st0" d="M90.1 180.4c-49.7 0-90.2-40.5-90.2-90.2S40.3 0 90.1 0s90.2 40.5 90.2 90.2-40.5 90.2-90.2 90.2zm0-176.8C42.3 3.6 3.4 42.4 3.4 90.2s38.9 86.7 86.7 86.7 86.7-38.9 86.7-86.7S137.9 3.6 90.1 3.6z"/><path class="st0" d="M99.5 149.7H72.8V92.1H61.2V65.3h11.4v-8.6c0-12.6 6.9-26 26.1-26l19.7.1v23.4h-14.8c-2.2 0-3.3 1.2-3.3 3.7v7.4h18.5L116.4 92h-17v57.7zm-23-3.7h19.4V88.4h17.3L115 69H96.7V57.9c0-5.4 3.7-7.4 6.9-7.4h11.1v-16l-16-.1c-20.8 0-22.4 17.1-22.4 22.3V69H64.9v19.4h11.5V146z" id="XMLID_19_"/></svg>