<?xml version="1.0" encoding="utf-8"?>
<!-- Generator: Adobe Illustrator 21.0.0, SVG Export Plug-In . SVG Version: 6.00 Build 0)  -->
<svg version="1.1" id="Layer_1" xmlns="http://www.w3.org/2000/svg" xmlns:xlink="http://www.w3.org/1999/xlink" x="0px" y="0px"
	 viewBox="0 0 180.4 180.4" style="enable-background:new 0 0 180.4 180.4;" xml:space="preserve">
<style type="text/css">
	.st0{fill:#ED8D22;}
</style>
<g>
	<g>
		<path class="st0" d="M90.2,180.4C40.5,180.4,0,140,0,90.2S40.5,0,90.2,0s90.2,40.5,90.2,90.2S140,180.4,90.2,180.4z M90.2,3.6
			C42.4,3.6,3.6,42.4,3.6,90.2s38.9,86.7,86.7,86.7s86.7-38.9,86.7-86.7S138,3.6,90.2,3.6z"/>
	</g>
	<g id="XMLID_19_">
		<path class="st0" d="M99.7,149.7H72.9V92.1H61.4V65.3h11.4v-8.6c0-12.6,6.9-26,26.1-26l19.7,0.1v23.4h-14.8
			c-2.2,0-3.3,1.2-3.3,3.7v7.4h18.5l-2.4,26.7h-17V149.7z M76.6,146H96V88.4h17.3L115,69H96.9V57.9c0-5.4,3.7-7.4,6.9-7.4h11.1V34.5
			l-16-0.1c-20.8,0-22.4,17.1-22.4,22.3V69H65.1v19.4h11.5V146z"/>
	</g>
</g>
</svg>
