<svg version="1.1" id="Layer_1" xmlns="http://www.w3.org/2000/svg" x="0" y="0" viewBox="0 0 180.4 180.4" xml:space="preserve"><style type="text/css">.st0{fill:#ed8d22}</style><path class="st0" d="M90.2 180.4C40.5 180.4 0 140 0 90.2S40.5 0 90.2 0s90.2 40.5 90.2 90.2-40.4 90.2-90.2 90.2zm0-176.8C42.4 3.6 3.6 42.4 3.6 90.2s38.9 86.7 86.7 86.7S177 138 177 90.2 138 3.6 90.2 3.6z"/><path class="st0" d="M99.7 149.7H72.9V92.1H61.4V65.3h11.4v-8.6c0-12.6 6.9-26 26.1-26l19.7.1v23.4h-14.8c-2.2 0-3.3 1.2-3.3 3.7v7.4H119L116.6 92h-17v57.7zM76.6 146H96V88.4h17.3L115 69H96.9V57.9c0-5.4 3.7-7.4 6.9-7.4h11.1v-16l-16-.1c-20.8 0-22.4 17.1-22.4 22.3V69H65.1v19.4h11.5V146z" id="XMLID_19_"/></svg>