<svg version="1.1" id="Layer_1" xmlns="http://www.w3.org/2000/svg" x="0" y="0" viewBox="0 0 126.4 126.3" xml:space="preserve"><style type="text/css">.st0{fill:#fff}</style><path class="st0" d="M63.2 126.3C28.3 126.3 0 98 0 63.2S28.3 0 63.2 0s63.2 28.3 63.2 63.2-28.4 63.1-63.2 63.1zm0-123.8C29.7 2.5 2.5 29.7 2.5 63.2s27.2 60.7 60.7 60.7 60.7-27.2 60.7-60.7S96.6 2.5 63.2 2.5z"/><path class="st0" d="M94.4 90.2H32.6c-1.3 0-2.4-1.1-2.4-2.4V38.5c0-1.3 1.1-2.4 2.4-2.4h61.7c1.3 0 2.4 1.1 2.4 2.4v49.3c0 1.3-1 2.4-2.3 2.4zm-.2-51.7l-61.6.1.1 49.2 61.5-.1V38.5z"/><path class="st0" d="M63.9 71.2c-.6 0-1.1-.2-1.6-.5L30.2 48.6l1.4-2.1 32.1 22.1c.1.1.3.1.4 0l30.3-22.1 1.5 2-30.4 22.2c-.4.3-1 .5-1.6.5z"/></svg>