<?xml version="1.0" encoding="utf-8"?>
<!-- Generator: Adobe Illustrator 21.0.0, SVG Export Plug-In . SVG Version: 6.00 Build 0)  -->
<svg version="1.1" id="Layer_1" xmlns="http://www.w3.org/2000/svg" xmlns:xlink="http://www.w3.org/1999/xlink" x="0px" y="0px"
	 viewBox="0 0 126.4 126.3" style="enable-background:new 0 0 126.4 126.3;" xml:space="preserve">
<style type="text/css">
	.st0{fill:#FFFFFF;}
</style>
<g>
	<g>
		<g>
			<path class="st0" d="M63.2,126.3C28.3,126.3,0,98,0,63.2S28.3,0,63.2,0s63.2,28.3,63.2,63.2S98,126.3,63.2,126.3z M63.2,2.5
				C29.7,2.5,2.5,29.7,2.5,63.2s27.2,60.7,60.7,60.7s60.7-27.2,60.7-60.7S96.6,2.5,63.2,2.5z"/>
		</g>
		<g>
			<g>
				<path class="st0" d="M94.4,90.2H32.6c-1.3,0-2.4-1.1-2.4-2.4V38.5c0-1.3,1.1-2.4,2.4-2.4h61.7c1.3,0,2.4,1.1,2.4,2.4v49.3
					C96.7,89.1,95.7,90.2,94.4,90.2z M94.2,38.5l-61.6,0.1l0.1,49.2l61.5-0.1V38.5z"/>
			</g>
			<g>
				<path class="st0" d="M63.9,71.2c-0.6,0-1.1-0.2-1.6-0.5L30.2,48.6l1.4-2.1l32.1,22.1c0.1,0.1,0.3,0.1,0.4,0l30.3-22.1l1.5,2
					L65.5,70.7C65.1,71,64.5,71.2,63.9,71.2z"/>
			</g>
		</g>
	</g>
</g>
</svg>
