<?xml version="1.0" encoding="utf-8"?>
<!-- Generator: Adobe Illustrator 21.0.0, SVG Export Plug-In . SVG Version: 6.00 Build 0)  -->
<svg version="1.1" id="svg2" xmlns="http://www.w3.org/2000/svg" xmlns:xlink="http://www.w3.org/1999/xlink" x="0px" y="0px"
	 viewBox="0 0 157.9 158.8" style="enable-background:new 0 0 157.9 158.8;" xml:space="preserve">
<style type="text/css">
	.st0{clip-path:url(#SVGID_2_);}
	.st1{fill:#EE9136;}
</style>
<g id="g10" transform="matrix(1.25 0 0 -1.25 0 250)">
	<g id="g12">
		<g>
			<g>
				<defs>
					<rect id="SVGID_1_" x="-57.3" y="-19.9" width="312.5" height="312.5"/>
				</defs>
				<clipPath id="SVGID_2_">
					<use xlink:href="#SVGID_1_"  style="overflow:visible;"/>
				</clipPath>
				<g id="g14" class="st0">
					<g id="g20" transform="translate(64.137 160.681)">
						<path id="path22" class="st1" d="M-1,36.4c-33.5,0-60.7-27.2-60.7-60.7C-61.6-57.7-34.4-85-1-85c33.5,0,60.7,27.2,60.7,60.7
							S32.5,36.4-1,36.4 M-1-87.5c-34.8,0-63.2,28.3-63.2,63.2c0,34.8,28.3,63.2,63.2,63.2s63.2-28.3,63.2-63.2
							C62.2-59.1,33.9-87.5-1-87.5"/>
					</g>
					<g id="g24" transform="translate(95.207 124.638)">
						<path id="path26" class="st1" d="M-1,36.4l-61.6-0.1l0.1-49.2L-1-12.8V36.4z M-0.8-15.3h-61.7c-1.3,0-2.4,1.1-2.4,2.4v49.3
							c0,1.3,1.1,2.4,2.4,2.4h61.7c1.3,0,2.4-1.1,2.4-2.4v-49.3C1.5-14.2,0.5-15.3-0.8-15.3"/>
					</g>
					<g id="g28" transform="translate(64.834 91.97)">
						<path id="path30" class="st1" d="M-1,36.4c-0.6,0-1.1,0.2-1.6,0.5L-34.7,59l1.4,2.1L-1.2,39c0.1-0.1,0.3-0.1,0.4,0l30.3,22
							l1.5-2L0.7,36.9C0.2,36.6-0.4,36.4-1,36.4"/>
					</g>
				</g>
			</g>
		</g>
	</g>
</g>
</svg>
