<svg version="1.1" id="svg2" xmlns="http://www.w3.org/2000/svg" xmlns:xlink="http://www.w3.org/1999/xlink" x="0" y="0" viewBox="0 0 157.9 158.8" xml:space="preserve"><style type="text/css">.st1{fill:#ee9136}</style><g id="g10" transform="matrix(1.25 0 0 -1.25 0 250)"><g id="g12"><defs><path id="SVGID_1_" d="M-57.3-19.9h312.5v312.5H-57.3z"/></defs><clipPath id="SVGID_2_"><use xlink:href="#SVGID_1_" overflow="visible"/></clipPath><g id="g14" clip-path="url(#SVGID_2_)"><g id="g20" transform="translate(64.137 160.681)"><path id="path22" class="st1" d="M-1 36.4c-33.5 0-60.7-27.2-60.7-60.7C-61.6-57.7-34.4-85-1-85c33.5 0 60.7 27.2 60.7 60.7S32.5 36.4-1 36.4m0-123.9c-34.8 0-63.2 28.3-63.2 63.2 0 34.8 28.3 63.2 63.2 63.2s63.2-28.3 63.2-63.2c0-34.8-28.3-63.2-63.2-63.2"/></g><g id="g24" transform="translate(95.207 124.638)"><path id="path26" class="st1" d="M-1 36.4l-61.6-.1.1-49.2 61.5.1v49.2zm.2-51.7h-61.7c-1.3 0-2.4 1.1-2.4 2.4v49.3c0 1.3 1.1 2.4 2.4 2.4H-.8c1.3 0 2.4-1.1 2.4-2.4v-49.3c-.1-1.3-1.1-2.4-2.4-2.4"/></g><g id="g28" transform="translate(64.834 91.97)"><path id="path30" class="st1" d="M-1 36.4c-.6 0-1.1.2-1.6.5L-34.7 59l1.4 2.1L-1.2 39c.1-.1.3-.1.4 0l30.3 22 1.5-2L.7 36.9c-.5-.3-1.1-.5-1.7-.5"/></g></g></g></g></svg>