<svg version="1.1" id="Layer_1" xmlns="http://www.w3.org/2000/svg" x="0" y="0" viewBox="0 0 127 127" xml:space="preserve"><style type="text/css">.st0{fill:#fff}</style><path class="st0" d="M87.5 100c-15.9 0-31.5-6.4-42.8-17.7C33.3 70.9 26.8 55 27 38.9c0 0 0-2.4 1.8-4.3 1-1.3 4.7-4.7 5.1-5.1 2.1-2.2 6.1-3.1 9.1-2.1l1.1.4c2.9 1 5.7 4 6.5 6.9l2.5 9.3c.8 3-.2 7-2.4 9.2L47.9 56C51.2 67.2 60 76 71.2 79.3l2.8-2.8c2.1-2.2 6.2-3.2 9.1-2.4l9.3 2.5c2.9.8 6 3.7 6.9 6.6l.4 1.1c1 2.9 0 6.9-2.1 9.1-.4.4-4.2 4.3-5.1 5.1-2.3 1.7-4.3 1.8-4.4 1.8-.3-.3-.5-.3-.6-.3zm-47-70.5c-1.8 0-3.7.7-4.8 1.8-1.1 1-4.1 3.9-4.9 4.9-1.1 1.2-1.2 2.7-1.2 2.7-.2 15.5 6 30.6 17 41.6 10.8 10.8 25.7 17 41 17h.5s1.4-.1 2.9-1.2c.6-.5 3.7-3.7 4.9-4.9 1.5-1.5 2.2-4.5 1.6-6.5l-.4-1.1c-.7-2.1-3.1-4.3-5.2-4.9l-9.3-2.5c-2.1-.6-5.2.3-6.7 1.8l-4 3.8-.7-.2c-12.6-3.4-22.5-13.3-25.9-25.9l-.2-.7 3.9-3.9c1.5-1.5 2.3-4.6 1.8-6.7l-2.5-9.3c-.6-2.1-2.8-4.5-4.9-5.2l-1.1-.4c-.6-.1-1.2-.2-1.8-.2z"/><path class="st0" d="M63.5 127C28.5 127 0 98.5 0 63.5S28.5 0 63.5 0 127 28.5 127 63.5 98.5 127 63.5 127zm0-124.5c-33.6 0-61 27.4-61 61s27.4 61 61 61 61-27.4 61-61-27.4-61-61-61z"/></svg>