<?xml version="1.0" encoding="utf-8"?>
<!-- Generator: Adobe Illustrator 21.0.0, SVG Export Plug-In . SVG Version: 6.00 Build 0)  -->
<svg version="1.1" id="svg2" xmlns="http://www.w3.org/2000/svg" xmlns:xlink="http://www.w3.org/1999/xlink" x="0px" y="0px"
	 viewBox="0 0 158.7 159.3" style="enable-background:new 0 0 158.7 159.3;" xml:space="preserve">
<style type="text/css">
	.st0{clip-path:url(#SVGID_2_);}
	.st1{fill:#EE9136;}
</style>
<g id="g10" transform="matrix(1.25 0 0 -1.25 0 250)">
	<g id="g12">
		<g>
			<g>
				<defs>
					<rect id="SVGID_1_" x="-57" y="-20.3" width="312.5" height="312.5"/>
				</defs>
				<clipPath id="SVGID_2_">
					<use xlink:href="#SVGID_1_"  style="overflow:visible;"/>
				</clipPath>
				<g id="g14" class="st0">
					<g id="g20" transform="translate(41.23 133.998)">
						<path id="path22" class="st1" d="M-0.8,36c-1.8,0-3.7-0.7-4.8-1.8c-1.1-1-4.1-3.9-4.9-4.9c-1.1-1.2-1.2-2.7-1.2-2.7
							C-11.9,11.1-5.7-4,5.3-15c10.8-10.8,25.7-17,41-17h0.5c0,0,1.4,0.1,2.9,1.2c0.6,0.5,3.7,3.7,4.9,4.9c1.5,1.5,2.2,4.5,1.6,6.5
							l-0.4,1.1c-0.7,2.1-3.1,4.3-5.2,4.9l-9.3,2.5c-2.1,0.6-5.2-0.3-6.7-1.8l-3.9-3.9L30-16.4C17.3-12.9,7.4-2.9,4,9.6l-0.2,0.7
							l3.9,3.9c1.5,1.5,2.3,4.6,1.8,6.7L7,30.2c-0.7,2.1-3,4.5-5,5.2l-1.1,0.4C0.4,35.9-0.2,36-0.8,36 M46.2-34.5
							c-15.9,0-31.5,6.4-42.8,17.7C-8-5.4-14.5,10.5-14.3,26.6c0,0,0,2.4,1.8,4.3c1,1.3,4.7,4.7,5.1,5.1c2.1,2.2,6.1,3.1,9.1,2.1
							l1.1-0.4c2.9-1,5.7-4,6.5-6.9l2.5-9.3c0.8-3-0.2-7-2.4-9.2L6.6,9.6c3.3-11.2,12.1-20,23.2-23.3l2.8,2.8
							c2.1,2.2,6.2,3.2,9.1,2.4L51-11c2.9-0.8,6-3.7,6.9-6.6l0.4-1.1c1-2.9,0-6.9-2.1-9.1c-0.4-0.4-4.2-4.3-5.1-5.1
							c-2.3-1.7-4.3-1.8-4.4-1.8C46.7-34.5,46.2-34.5,46.2-34.5z"/>
					</g>
					<g id="g24" transform="translate(64.264 161.001)">
						<path id="path26" class="st1" d="M-0.8,36c-33.6,0-61-27.4-61-61s27.4-61,61-61s61,27.4,61,61S32.8,36-0.8,36 M-0.8-88.5
							c-35,0-63.5,28.5-63.5,63.5s28.5,63.5,63.5,63.5S62.7,10,62.7-25S34.2-88.5-0.8-88.5"/>
					</g>
				</g>
			</g>
		</g>
	</g>
</g>
</svg>
