<?xml version="1.0" encoding="utf-8"?>
<!-- Generator: Adobe Illustrator 21.0.0, SVG Export Plug-In . SVG Version: 6.00 Build 0)  -->
<svg version="1.1" id="Layer_1" xmlns="http://www.w3.org/2000/svg" xmlns:xlink="http://www.w3.org/1999/xlink" x="0px" y="0px"
	 viewBox="0 0 127 127" style="enable-background:new 0 0 127 127;" xml:space="preserve">
<style type="text/css">
	.st0{fill:#FFFFFF;}
</style>
<g>
	<g>
		<g>
			<path class="st0" d="M87.5,100c-15.9,0-31.5-6.4-42.8-17.7C33.3,70.9,26.8,55,27,38.9c0,0,0-2.4,1.8-4.3c1-1.3,4.7-4.7,5.1-5.1
				c2.1-2.2,6.1-3.1,9.1-2.1l1.1,0.4c2.9,1,5.7,4,6.5,6.9l2.5,9.3c0.8,3-0.2,7-2.4,9.2L47.9,56C51.2,67.2,60,76,71.2,79.3l2.8-2.8
				c2.1-2.2,6.2-3.2,9.1-2.4l9.3,2.5c2.9,0.8,6,3.7,6.9,6.6l0.4,1.1c1,2.9,0,6.9-2.1,9.1c-0.4,0.4-4.2,4.3-5.1,5.1
				c-2.3,1.7-4.3,1.8-4.4,1.8C87.8,100,87.6,100,87.5,100z M40.5,29.5c-1.8,0-3.7,0.7-4.8,1.8c-1.1,1-4.1,3.9-4.9,4.9
				c-1.1,1.2-1.2,2.7-1.2,2.7c-0.2,15.5,6,30.6,17,41.6c10.8,10.8,25.7,17,41,17c0.2,0,0.3,0,0.5,0c0,0,1.4-0.1,2.9-1.2
				c0.6-0.5,3.7-3.7,4.9-4.9c1.5-1.5,2.2-4.5,1.6-6.5l-0.4-1.1c-0.7-2.1-3.1-4.3-5.2-4.9l-9.3-2.5c-2.1-0.6-5.2,0.3-6.7,1.8l-4,3.8
				l-0.7-0.2c-12.6-3.4-22.5-13.3-25.9-25.9l-0.2-0.7l3.9-3.9c1.5-1.5,2.3-4.6,1.8-6.7l-2.5-9.3c-0.6-2.1-2.8-4.5-4.9-5.2l-1.1-0.4
				C41.7,29.6,41.1,29.5,40.5,29.5z"/>
		</g>
		<g>
			<path class="st0" d="M63.5,127C28.5,127,0,98.5,0,63.5S28.5,0,63.5,0S127,28.5,127,63.5S98.5,127,63.5,127z M63.5,2.5
				c-33.6,0-61,27.4-61,61s27.4,61,61,61s61-27.4,61-61S97.1,2.5,63.5,2.5z"/>
		</g>
	</g>
</g>
</svg>
