<?xml version="1.0" encoding="utf-8"?>
<!-- Generator: Adobe Illustrator 21.0.0, SVG Export Plug-In . SVG Version: 6.00 Build 0)  -->
<svg version="1.1" id="Layer_1" xmlns="http://www.w3.org/2000/svg" xmlns:xlink="http://www.w3.org/1999/xlink" x="0px" y="0px"
	 viewBox="0 0 137 31.8" style="enable-background:new 0 0 137 31.8;" xml:space="preserve" width="180" height="180">
<g>
	<g>
		<g>
			<rect x="63.5" y="0.4" width="0.9" height="14.3"/>
		</g>
		<g>
			<rect x="72.3" y="0.3" width="0.9" height="16.9"/>
		</g>
		<g>
			<rect x="80.9" y="0.3" width="0.9" height="19.5"/>
		</g>
		<g>
			<rect x="56.6" y="4.7" width="31.9" height="0.9"/>
		</g>
		<g>
			<rect x="56.6" y="10.7" width="31.9" height="0.9"/>
		</g>
	</g>
	<g>
		<path d="M88.5,31.8H56.7V17l0.2-0.1c0.1-0.1,9-5.8,16.2,0c6.7,5.4,14.6-0.1,14.7-0.2l0.7-0.5V31.8z M57.6,30.9h30v-13
			c-2.2,1.3-9.1,4.5-15.1-0.3c-6.1-4.9-13.6-0.9-15-0.1V30.9z"/>
	</g>
	<g>
		<circle cx="62.6" cy="19.4" r="1.3"/>
		<circle cx="64.2" cy="27.1" r="1.3"/>
		<circle cx="70.6" cy="22" r="1.3"/>
		<circle cx="76.7" cy="27.1" r="1.3"/>
		<circle cx="83.1" cy="24" r="1.3"/>
	</g>
</g>
<g>
	<path d="M31.3,9.7L23.8,7l-0.3,0.9l6.9,2.5V13l-2.9-1.1l-0.3,0.8l3.2,1.2v2.2l-3.1-1.2L27,15.9l3.4,1.3v2.2l-8.5-3.6V2.9L15.2,0
		L8.6,2.9v12.9L0,19.4v-2.2l3.4-1.4L3.1,15L0,16.2V14l3.2-1.2l-0.3-0.8L0,13v-2.6l6.7-2.6L6.3,7l-7.2,2.8v15.8l16.1,6.6l16.1-6.9
		V9.7z M15.7,6.1L21,3.8V20l-5.3,2.1L15.7,6.1z M15.2,1l5.2,2.2l-5.2,2.1l-5.1-2.1L15.2,1z M14.8,6l0,16l-5.3-2V3.8L14.8,6z
		 M8.6,16.8l0,3.8l6.6,2.7l6.7-2.7l0-3.8l7.3,3.1l-14,5.6L1.1,19.9L8.6,16.8z M0,20.5l14.7,5.9V31L0,24.9V20.5z M30.4,24.6
		l-14.8,6.3v-4.6l14.8-5.9V24.6z"/>
</g>
<g>
	<g>
		<path d="M137,18.9h-30.8v-4.3h1.6c0.3-5.6,3.9-11.6,10.4-12.8V0.2h6.7v1.5c5.7,1.2,10.1,6.6,10.4,12.8h1.6V18.9z M107.1,17.9h29
			v-2.5h-1.6l0-0.4c-0.1-5.9-4.2-11.1-9.5-12.3v12H124V1.1h-4.9v13.6h-0.9v-12c-6.1,1.2-9.4,7.1-9.5,12.3l0,0.4h-1.6V17.9z"/>
	</g>
	<path d="M132.8,21.6l-0.1,0.2c-0.2,0.4-0.4,0.8-0.7,1.2l-0.1,0.2l1.2,2.4l-2,2l-2.5-1l-0.2,0.1c-0.4,0.2-0.8,0.5-1.2,0.7l-0.2,0.1
		l-0.2,2.6l-2.9,0.8l-1.5-2.2l-0.3,0c-0.4,0-0.9,0-1.3,0l-0.3,0l-1.5,2.2l-2.9-0.8l-0.1-2.6l-0.2-0.1c-0.5-0.2-0.8-0.4-1.2-0.7
		l-0.2-0.1l-2.4,1.2l-2.1-2.1l1.2-2.4l-0.2-0.2c-0.3-0.4-0.5-0.8-0.7-1.2l-0.1-0.2l-3.6-0.2l0.2,0.9l2.8,0.2
		c0.1,0.3,0.3,0.5,0.5,0.8l-1.3,2.5l3,3l2.5-1.2c0.2,0.2,0.5,0.3,0.8,0.5l0.2,2.8l4.1,1.1l1.5-2.3c0.3,0,0.6,0,0.9,0l1.5,2.3
		l4.1-1.1l0.2-2.8c0.3-0.1,0.6-0.3,0.8-0.5l2.6,1.1l2.9-2.9l-1.2-2.5c0.2-0.3,0.3-0.5,0.5-0.8l2.8-0.2l0.3-0.9L132.8,21.6z"/>
	<path d="M121.6,25.4C121.6,25.4,121.6,25.4,121.6,25.4c2.5,0,4.7-0.9,6.5-2.7c0.4-0.4,0.7-0.8,1.1-1.3h-1.2
		c-0.2,0.2-0.3,0.4-0.5,0.6c-1.6,1.6-3.6,2.4-5.8,2.4c0,0,0,0,0,0c-2.2,0-4.3-0.9-5.8-2.4c-0.2-0.2-0.3-0.4-0.5-0.6h-1.2
		c0.3,0.4,0.6,0.9,1,1.3C116.9,24.4,119.1,25.4,121.6,25.4z"/>
</g>
</svg>
