<svg version="1.1" id="Layer_1" xmlns="http://www.w3.org/2000/svg" x="0" y="0" viewBox="0 0 137 31.8" xml:space="preserve" width="180" height="180"><path d="M63.5.4h.9v14.3h-.9zm8.8-.1h.9v16.9h-.9zm8.6 0h.9v19.5h-.9z"/><path d="M56.6 4.7h31.9v.9H56.6zm0 6h31.9v.9H56.6zm31.9 21.1H56.7V17l.2-.1c.1-.1 9-5.8 16.2 0 6.7 5.4 14.6-.1 14.7-.2l.7-.5v15.6zm-30.9-.9h30v-13c-2.2 1.3-9.1 4.5-15.1-.3-6.1-4.9-13.6-.9-15-.1v13.4z"/><circle cx="62.6" cy="19.4" r="1.3"/><circle cx="64.2" cy="27.1" r="1.3"/><circle cx="70.6" cy="22" r="1.3"/><circle cx="76.7" cy="27.1" r="1.3"/><circle cx="83.1" cy="24" r="1.3"/><path d="M31.3 9.7L23.8 7l-.3.9 6.9 2.5V13l-2.9-1.1-.3.8 3.2 1.2v2.2l-3.1-1.2-.3 1 3.4 1.3v2.2l-8.5-3.6V2.9L15.2 0 8.6 2.9v12.9L0 19.4v-2.2l3.4-1.4-.3-.8L0 16.2V14l3.2-1.2-.3-.8L0 13v-2.6l6.7-2.6-.4-.8-7.2 2.8v15.8l16.1 6.6 16.1-6.9V9.7zM15.7 6.1L21 3.8V20l-5.3 2.1v-16zM15.2 1l5.2 2.2-5.2 2.1-5.1-2.1L15.2 1zm-.4 5v16l-5.3-2V3.8L14.8 6zM8.6 16.8v3.8l6.6 2.7 6.7-2.7v-3.8l7.3 3.1-14 5.6-14.1-5.6 7.5-3.1zM0 20.5l14.7 5.9V31L0 24.9v-4.4zm30.4 4.1l-14.8 6.3v-4.6l14.8-5.9v4.2zM137 18.9h-30.8v-4.3h1.6c.3-5.6 3.9-11.6 10.4-12.8V.2h6.7v1.5c5.7 1.2 10.1 6.6 10.4 12.8h1.6v4.4zm-29.9-1h29v-2.5h-1.6V15c-.1-5.9-4.2-11.1-9.5-12.3v12h-1V1.1h-4.9v13.6h-.9v-12c-6.1 1.2-9.4 7.1-9.5 12.3v.4h-1.6v2.5zm25.7 3.7l-.1.2c-.2.4-.4.8-.7 1.2l-.1.2 1.2 2.4-2 2-2.5-1-.2.1c-.4.2-.8.5-1.2.7l-.2.1-.2 2.6-2.9.8-1.5-2.2h-1.9l-1.5 2.2-2.9-.8-.1-2.6-.2-.1c-.5-.2-.8-.4-1.2-.7l-.2-.1-2.4 1.2-2.1-2.1 1.2-2.4-.2-.2c-.3-.4-.5-.8-.7-1.2l-.1-.2-3.6-.2.2.9 2.8.2c.1.3.3.5.5.8l-1.3 2.5 3 3 2.5-1.2c.2.2.5.3.8.5l.2 2.8 4.1 1.1 1.5-2.3h.9l1.5 2.3 4.1-1.1.2-2.8c.3-.1.6-.3.8-.5l2.6 1.1 2.9-2.9-1.2-2.5c.2-.3.3-.5.5-.8l2.8-.2.3-.9-3.4.1z"/><path d="M121.6 25.4c2.5 0 4.7-.9 6.5-2.7.4-.4.7-.8 1.1-1.3H128c-.2.2-.3.4-.5.6-1.6 1.6-3.6 2.4-5.8 2.4-2.2 0-4.3-.9-5.8-2.4-.2-.2-.3-.4-.5-.6h-1.2c.3.4.6.9 1 1.3 1.7 1.7 3.9 2.7 6.4 2.7z"/></svg>